PathFileType	3	(X/Y/Z)	D:\minhoCalibration\240510\subject5_KPNP\preferred\preferred05.trc
DataRate	CameraRate	NumFrames	NumMarkers	Units	OrigDataRate	OrigDataStartFrame	OrigNumFrames
200.0	200.0	24	10	mm	200.0	140	131	
Frame#	Time	Left_Ankle_Outer1			Left_Ankle_Inner1			Left_Knee_Outer1			Left_Knee_Inner1			Left_Wrist1			Right_Wrist1			Right_Knee_Inner1			Right_Knee_Outer1			Right_Ankle_Inner1			Right_Ankle_Outer1			
		X1	Y1	Z1	X2	Y2	Z2	X3	Y3	Z3	X4	Y4	Z4	X5	Y5	Z5	X6	Y6	Z6	X7	Y7	Z7	X8	Y8	Z8	X9	Y9	Z9	X10	Y10	Z10	
140	0.69	-584.11304	72.955605	-540.23804	-622.66461	84.281075	-508.42099	-453.01498	533.05951	-483.51315	-538.48102	520.10168	-435.91855	-506.56439	968.79346	-691.5108	-828.14948	1000.2374	-759.38965	-827.75958	456.61594	-801.83832	-897.21692	506.37643	-833.8905	-746.52191	119.22986	-1088.5521	-796.76117	169.29294	-1152.9282
141	0.695	-584.2356	73.036697	-539.37286	-623.09406	84.831902	-507.14349	-449.70819	531.88397	-479.88513	-535.21655	518.24725	-434.46426	-502.50964	969.87555	-687.52686	-825.71851	1000.4861	-751.95331	-832.47192	456.51431	-787.30646	-901.2796	507.00467	-818.97339	-747.23041	124.85707	-1082.5139	-798.17694	176.62387	-1145.4175
142	0.7	-583.4137	72.953682	-539.02869	-621.99652	85.274399	-507.17062	-446.81729	530.54279	-476.34259	-532.78998	517.06458	-432.27536	-498.71082	971.01562	-683.48541	-818.83844	1003.8662	-740.7196	-837.04456	456.02258	-772.2475	-905.83105	507.64291	-803.69385	-749.93903	131.02837	-1074.7582	-800.08588	184.27	-1136.9788
143	0.705	-582.14148	73.066231	-539.11206	-621.0816	85.225441	-507.84497	-443.79486	529.72723	-473.40112	-530.63074	515.8653	-430.43732	-494.77411	972.30945	-679.87421	-818.76111	1005.1061	-737.17401	-841.49213	455.88062	-756.08374	-909.79303	508.53091	-787.4494	-752.53668	137.36966	-1066.6256	-802.70807	192.36862	-1127.6342
144	0.71	-581.13269	73.356865	-539.33307	-620.4223	85.653305	-508.09991	-440.8414	529.29492	-470.71823	-527.73285	515.85382	-428.47141	-490.83832	973.3537	-676.59021	-813.27002	1006.3897	-724.30017	-845.61902	456.06659	-738.82025	-913.61176	509.25171	-770.64575	-755.40857	144.18217	-1058.0518	-805.33698	200.52589	-1117.1404
145	0.715	-580.27869	73.579224	-539.65607	-619.78345	85.923386	-508.74179	-438.22507	529.33862	-468.39645	-524.70642	516.33636	-426.56561	-486.89673	975.17853	-673.01154	-808.96143	1008.3378	-718.729	-849.36017	456.75085	-720.65991	-914.98694	510.17316	-754.70319	-758.38916	151.44881	-1048.7983	-808.70557	209.6633	-1106.2921
146	0.72	-579.52032	73.644943	-539.89899	-618.53418	86.104523	-510.03564	-435.79965	529.466	-466.77664	-522.18835	516.44781	-425.07095	-482.83752	976.94678	-670.11102	-805.92291	1009.8998	-711.67383	-852.33167	457.29269	-702.52924	-919.88239	511.45911	-735.30316	-761.69794	159.03505	-1038.5593	-812.26733	219.08192	-1094.2794
147	0.725	-578.86365	73.500656	-540.13672	-618.39575	86.387756	-510.30963	-433.99237	529.43964	-465.56857	-519.50616	516.87897	-424.10675	-478.88617	978.69586	-667.35101	-802.20471	1012.4218	-703.95892	-854.86768	458.44235	-683.69183	-922.72852	512.76178	-715.5589	-765.10504	166.70755	-1027.2596	-816.10284	228.59267	-1081.5399
148	0.73	-578.45258	73.327133	-540.17169	-617.8609	86.195335	-510.69528	-432.38196	529.23419	-464.69388	-517.67297	517.27118	-422.26529	-474.94644	979.98932	-665.42743	-799.40601	1013.0314	-697.68256	-856.86981	460.12573	-664.80469	-924.96765	514.43329	-695.91534	-768.60028	174.04346	-1014.9855	-820.06018	237.4827	-1067.1648
149	0.735	-578.16479	73.175415	-540.12769	-617.97205	86.001968	-511.03961	-430.86411	528.87158	-464.13989	-515.75098	516.94635	-421.20496	-470.75006	982.44781	-662.25824	-795.53064	1014.3123	-691.43982	-858.13373	462.16629	-645.72186	-926.71497	516.49164	-676.14111	-772.1568	181.39424	-1001.8957	-824.21979	246.95227	-1052.5272
150	0.74	-578.05524	73.137215	-539.93182	-617.86346	86.179802	-511.19971	-429.55179	528.43323	-463.64468	-514.08484	516.47729	-420.1871	-466.88757	984.22925	-659.78857	-792.03448	1015.7907	-684.7572	-858.59369	464.46249	-626.20691	-927.69403	518.99689	-655.97662	-775.40961	189.01604	-988.1366	-828.48462	256.04111	-1036.6699
151	0.745	-577.92279	73.079773	-539.78436	-617.58527	85.987137	-511.05707	-428.36044	528.01093	-462.92798	-512.7663	516.0567	-419.33853	-462.84555	986.12659	-657.19952	-787.92932	1016.7863	-680.14178	-858.78741	467.91913	-607.01367	-928.41705	522.23108	-635.42676	-777.99091	197.66763	-974.01917	-832.7981	265.20251	-1019.9446
152	0.75	-577.85205	72.997002	-539.68433	-617.52087	86.131187	-510.83185	-427.38788	527.39459	-462.21478	-511.69562	515.75854	-418.60654	-459.18814	987.7713	-654.94843	-783.51788	1018.2614	-675.86676	-857.87677	471.29736	-587.32513	-928.88544	526.2569	-615.13873	-780.30151	207.1293	-958.98059	-837.32867	274.29044	-1002.3241
153	0.755	-577.73975	73.069519	-539.59607	-617.17804	85.773605	-511.24503	-426.45578	526.81018	-461.41251	-510.83755	515.56213	-418.17828	-455.41629	989.526	-652.7829	-780.45996	1018.7054	-669.53064	-856.94763	475.80054	-568.00317	-928.08801	530.41785	-595.1413	-782.35791	217.18196	-943.06854	-841.84601	283.31836	-984.26422
154	0.76	-577.58228	73.181633	-539.57611	-616.7348	85.950592	-511.39307	-425.58057	526.16565	-460.72821	-510.09656	515.38788	-417.96558	-451.86646	990.8869	-650.85718	-776.89764	1020.616	-664.20483	-855.52466	480.84219	-548.862	-927.11011	535.78778	-575.25	-784.16772	227.2807	-926.33929	-845.83777	292.43619	-965.78955
155	0.765	-577.52673	73.281868	-539.5343	-617.2193	86.209373	-510.94662	-424.9364	525.56146	-460.18851	-509.50992	515.23657	-417.85913	-447.47733	993.36053	-648.38019	-773.83423	1022.295	-658.16907	-854.00623	486.29166	-529.1217	-926.88885	541.461	-553.36884	-785.54919	237.57675	-909.64471	-848.867	301.68961	-947.00159
156	0.77	-577.45801	73.281807	-539.56158	-617.24786	86.182198	-511.13773	-424.19263	525.23938	-459.97638	-508.93265	515.02356	-417.99591	-444.93073	993.38086	-647.70715	-772.32684	1025.9032	-647.41785	-851.93903	492.30237	-509.65088	-925.61475	547.84344	-532.612	-785.51807	247.80167	-892.23126	-850.94012	310.86676	-928.1048
157	0.775	-577.32733	73.392319	-539.52362	-617.23358	86.351158	-511.02673	-423.4899	524.86072	-459.91553	-508.26813	514.80145	-418.2825	-441.38516	994.73059	-646.49268	-767.24536	1026.9482	-646.11676	-849.43732	498.86786	-489.89691	-923.3891	555.15649	-511.8714	-784.96448	257.99939	-874.61597	-852.12354	320.14395	-909.09045
158	0.78	-577.16974	73.514137	-539.6322	-616.086	86.284973	-511.57315	-422.76364	524.69202	-460.26514	-507.50302	514.68787	-418.6734	-438.12753	995.7569	-645.76746	-765.42554	1029.2483	-638.66595	-847.11353	506.21402	-469.66714	-921.00775	562.79279	-490.85934	-785.27704	267.61768	-856.41449	-852.58771	329.74915	-890.10229
159	0.785	-577.00189	73.57991	-539.71179	-616.31946	86.891037	-511.55234	-422.01492	524.50732	-460.99969	-506.53278	514.55963	-419.3537	-435.67014	996.43695	-645.38635	-761.17902	1031.9966	-634.13654	-843.95807	513.94049	-449.68094	-918.71002	570.85394	-468.98444	-783.78711	278.14337	-838.38226	-852.36835	339.58981	-870.71906
160	0.79	-576.71484	73.775719	-539.85571	-616.29901	86.970459	-511.51913	-421.24515	524.52258	-461.91135	-505.4407	514.58661	-419.979	-432.42053	997.66565	-645.20947	-759.04327	1035.4111	-626.63257	-840.1731	522.52283	-429.62137	-914.67462	579.50562	-448.47934	-783.755	287.89795	-819.60596	-851.67029	350.09518	-851.57812
161	0.795	-576.48419	73.90094	-540.00159	-615.95599	87.348915	-511.60974	-420.1796	524.46094	-463.29816	-504.11386	514.5993	-421.07635	-429.0795	998.5459	-645.44843	-754.84656	1038.8228	-621.00714	-836.27716	531.75281	-408.99393	-910.77948	588.84698	-427.2572	-782.69397	298.20804	-801.00604	-850.66577	360.69656	-832.26465
162	0.8	-576.01074	74.161049	-540.39551	-615.74854	87.499062	-512.26532	-419.1322	524.43359	-464.80661	-502.70142	514.77527	-422.08261	-426.46481	999.35638	-646.00513	-751.67444	1043.0847	-613.32831	-831.25885	541.31982	-389.15936	-906.0976	598.56451	-406.12936	-781.39795	308.6463	-782.39319	-849.58221	371.65768	-812.67975
163	0.805	-575.49731	74.524582	-540.72192	-614.90582	88.143806	-512.84485	-418.02377	524.6601	-466.65869	-501.20218	514.98846	-423.32904	-423.94116	1000.2499	-646.89594	-747.88727	1047.3099	-606.47516	-825.51166	551.43085	-369.27313	-900.35431	609.18298	-384.95181	-780.43732	319.33002	-763.78992	-848.42249	383.06122	-793.17639
